<svg width="36" height="36" viewBox="0 0 36 36" fill="none" xmlns="http://www.w3.org/2000/svg">
<path d="M35.351 17.6877C35.351 27.2143 27.6284 34.9372 18.1019 34.9372C8.57529 34.9372 0.852539 27.2143 0.852539 17.6877C0.852539 8.16123 8.57529 0.438477 18.1019 0.438477C27.6283 0.438477 35.351 8.16123 35.351 17.6877Z" fill="#262626"/>
<path d="M22.9494 24.8952L22.5514 23.0878C22.5288 22.9815 22.472 22.9019 22.3808 22.8491C22.2823 22.7959 22.1838 22.7885 22.0854 22.8264L22.0284 22.8491L21.8919 22.8831C21.8311 22.8981 21.7611 22.9153 21.6815 22.9342C21.6019 22.9531 21.5093 22.9719 21.403 22.991C21.2973 23.01 21.1849 23.0271 21.0678 23.0423C20.9503 23.0571 20.8236 23.0706 20.6871 23.082C20.5505 23.0932 20.4142 23.099 20.2777 23.099C19.3151 23.099 18.4492 22.8395 17.68 22.3203C16.9107 21.801 16.3442 21.0981 15.9804 20.2115H20.3798C20.4633 20.2115 20.5391 20.1832 20.6071 20.1262C20.6755 20.0695 20.7172 19.9994 20.732 19.9158L21.0049 18.6425C21.0277 18.5292 21.0049 18.4267 20.9369 18.3357C20.8611 18.2447 20.7661 18.1991 20.6526 18.1991H15.4349C15.4121 17.6838 15.4121 17.2859 15.4349 17.0055H20.9825C21.1873 17.0055 21.3085 16.907 21.3463 16.71L21.6192 15.414C21.6417 15.3079 21.6156 15.2095 21.5396 15.1184C21.4716 15.0275 21.3769 14.9818 21.2556 14.9818H15.9351C16.314 14.133 16.8824 13.4661 17.6404 12.981C18.3983 12.4959 19.2547 12.2534 20.2096 12.2534C20.24 12.2383 20.3517 12.2421 20.5448 12.2648C20.7381 12.2874 20.8482 12.297 20.8746 12.2932C20.9007 12.2894 20.9997 12.3008 21.17 12.3272C21.3406 12.3537 21.4259 12.367 21.4259 12.367L21.6248 12.4068C21.6818 12.4182 21.7254 12.4275 21.7556 12.4352L21.8012 12.4465C21.8996 12.477 21.9903 12.4674 22.074 12.4182C22.1574 12.3688 22.2105 12.295 22.2333 12.1965L22.7222 10.389C22.7448 10.2904 22.7333 10.1995 22.6881 10.1161C22.6199 10.025 22.544 9.96822 22.4606 9.94557C21.7634 9.77128 21.028 9.68408 20.2551 9.68408C18.5572 9.68408 17.0398 10.1693 15.702 11.1392C14.3644 12.1093 13.4416 13.3902 12.9338 14.9817H11.8198C11.7136 14.9817 11.6266 15.0157 11.5583 15.084C11.4903 15.1521 11.4561 15.2393 11.4561 15.3454V16.6414C11.4561 16.7475 11.4901 16.8347 11.5583 16.9028C11.6266 16.971 11.7138 17.005 11.8198 17.005H12.5815C12.5586 17.3689 12.555 17.7666 12.57 18.1988H11.8198C11.7213 18.1988 11.636 18.2347 11.564 18.3067C11.4921 18.3787 11.4561 18.464 11.4561 18.5624V19.8471C11.4561 19.9457 11.4921 20.0307 11.564 20.103C11.6361 20.175 11.7213 20.2106 11.8198 20.2106H12.8998C13.3773 21.8855 14.2792 23.2177 15.6055 24.2066C16.9319 25.196 18.4818 25.6903 20.2551 25.6903C20.3992 25.6903 20.5451 25.6868 20.6929 25.6789C20.841 25.6713 20.9791 25.6598 21.108 25.6448C21.2367 25.6298 21.3638 25.6129 21.4888 25.5939C21.6138 25.5748 21.7275 25.5562 21.8297 25.5369C21.9321 25.5181 22.0287 25.4992 22.1196 25.4803C22.2106 25.4612 22.2921 25.4406 22.3642 25.4177C22.4361 25.3952 22.4965 25.378 22.546 25.3669C22.5953 25.3554 22.6351 25.3419 22.6652 25.3271L22.7221 25.3156C22.8056 25.2854 22.87 25.2303 22.9154 25.1506C22.9609 25.0715 22.972 24.9861 22.9494 24.8952Z" fill="#CAFF33"/>
</svg>
