<svg width="35" height="36" viewBox="0 0 35 36" fill="none" xmlns="http://www.w3.org/2000/svg">
<path fill-rule="evenodd" clip-rule="evenodd" d="M17.4862 35.0281C27.0632 35.0281 34.827 27.2644 34.827 17.6874C34.827 8.11038 27.0632 0.34668 17.4862 0.34668C7.90921 0.34668 0.145508 8.11038 0.145508 17.6874C0.145508 27.2644 7.90921 35.0281 17.4862 35.0281Z" fill="#262626"/>
<path fill-rule="evenodd" clip-rule="evenodd" d="M15.9668 9.68408C16.9192 9.68408 17.868 9.68408 18.8204 9.68408C18.7644 10.3283 18.7048 10.9761 18.6523 11.6203C19.7622 11.7008 20.8441 12.058 21.8175 12.5867C21.3973 13.6441 20.9737 14.7015 20.55 15.7588C19.7307 15.0621 18.6523 14.6769 17.5774 14.6909C17.3078 14.698 17.0277 14.7505 16.8036 14.9045C16.6566 15.0061 16.548 15.1636 16.5165 15.3387C16.492 15.4787 16.499 15.6363 16.576 15.7623C16.6636 15.9024 16.8176 15.9864 16.9717 16.039C17.2868 16.151 17.6264 16.158 17.9556 16.193C18.7293 16.2875 19.5066 16.4206 20.2384 16.6972C20.8056 16.9143 21.3483 17.2399 21.737 17.7161C22.1046 18.1537 22.3182 18.7069 22.3987 19.2742C22.4932 19.9289 22.4652 20.6082 22.2622 21.2454C22.1046 21.7566 21.835 22.2328 21.4849 22.6354C20.7601 23.4757 19.6957 23.9799 18.6033 24.1095C18.6383 24.7992 18.6803 25.4855 18.7188 26.1752C17.8155 26.1752 16.9157 26.1752 16.0158 26.1752C16.0508 25.4925 16.0964 24.8097 16.1279 24.127C15.4031 24.1025 14.6853 23.9414 14.0096 23.6858C13.3548 23.4372 12.7316 23.1081 12.1504 22.7229C12.5775 21.6235 13.0047 20.5241 13.4354 19.4212C13.9221 19.8309 14.4402 20.2125 15.0075 20.5031C15.6167 20.8147 16.2924 21.0143 16.9787 21.0213C17.3043 21.0248 17.6404 21.0073 17.9486 20.8953C18.1376 20.8252 18.3232 20.7027 18.4072 20.5101C18.4948 20.307 18.4878 20.0514 18.3547 19.8694C18.2602 19.7468 18.1271 19.6628 17.9871 19.6033C17.798 19.5263 17.6019 19.4842 17.4023 19.4527C16.6671 19.3337 15.9283 19.2356 15.2175 19.0046C14.6468 18.819 14.0901 18.5599 13.6349 18.1607C13.3478 17.9122 13.1097 17.6075 12.9417 17.2644C12.6896 16.7532 12.5951 16.1755 12.6021 15.6083C12.6021 14.9746 12.7316 14.3303 13.0467 13.7736C13.3198 13.2764 13.7365 12.8703 14.2057 12.5587C14.7729 12.184 15.4066 11.9284 16.0508 11.7218C16.0228 11.0426 15.9948 10.3633 15.9668 9.68408Z" fill="#CAFF33"/>
</svg>
