<svg width="35" height="34" viewBox="0 0 35 34" fill="none" xmlns="http://www.w3.org/2000/svg">
<path d="M15.5459 21.1812C14.5913 21.1812 14.0321 20.6438 14.0321 19.6794V18.5634C10.0226 18.2878 6.02674 17.4612 1.88086 15.8768V13.6036C6.98138 15.863 12.0955 16.6621 17.6598 16.6621C23.2376 16.6621 28.3518 15.863 33.4523 13.6036V15.8768C29.3064 17.4612 25.3105 18.2878 21.301 18.5634V19.6794C21.301 20.6438 20.7419 21.1812 19.7872 21.1812H15.5459ZM6.09493 30.343H29.2382C32.0612 30.343 33.4523 28.9653 33.4523 26.1409V12.7356C33.4523 9.91126 32.0612 8.53353 29.2382 8.53353H6.09493C3.28555 8.53353 1.88086 9.91126 1.88086 12.7356V26.1409C1.88086 28.9653 3.28555 30.343 6.09493 30.343ZM10.7454 9.73216H12.8593V7.29357C12.8593 6.24649 13.473 5.65407 14.5367 5.65407H20.7964C21.8602 5.65407 22.4603 6.24649 22.4603 7.29357V9.7046H24.5741V7.44513C24.5741 4.85498 23.2239 3.64258 20.7556 3.64258H14.5639C12.2319 3.64258 10.7454 4.85498 10.7454 7.44513V9.73216Z" fill="#CAFF33"/>
</svg>
