<svg width="30" height="30" viewBox="0 0 30 30" fill="none" xmlns="http://www.w3.org/2000/svg">
<g clip-path="url(#clip0_351_2776)">
<path d="M17.6914 6.87815C17.7243 6.91664 17.7298 6.92764 17.7353 6.92764C18.2797 7.00462 18.5327 7.41154 18.8241 7.81845C19.1595 8.28035 19.561 8.70376 19.9899 9.08868C21.1171 10.106 21.81 11.3377 22.0409 12.8389C22.4423 15.4673 20.9357 18.1672 18.4612 19.2175C14.7055 20.8122 10.5099 18.3872 10.0755 14.3291C9.84454 12.168 10.6364 10.3809 12.286 8.9732C12.8194 8.5168 13.2648 7.98891 13.6332 7.38954C13.6992 7.27956 13.8202 7.19158 13.9357 7.13659C14.1226 7.04861 14.3316 6.99912 14.568 6.91664C14.491 6.82316 14.4361 6.75718 14.3756 6.69119C14.0071 6.31177 13.6387 5.92136 13.2648 5.55293C13.1328 5.42096 13.0723 5.28349 13.0778 5.09653C13.0888 4.3157 13.0833 3.54037 13.0833 2.75953C13.0833 2.4461 13.4683 1.94571 13.7817 1.88522C14.1391 1.81374 14.5075 1.77524 14.865 1.70376C14.9694 1.68176 15.0849 1.61578 15.1454 1.53329C15.6678 0.829446 16.5861 0.823947 17.103 1.5223C17.1745 1.61578 17.3119 1.68726 17.4274 1.71476C17.7573 1.78624 18.0928 1.82473 18.4282 1.88522C18.7636 1.95121 19.121 2.38561 19.121 2.72654C19.121 3.51287 19.1155 4.3047 19.1265 5.09103C19.132 5.29449 19.0661 5.43196 18.9286 5.57493C18.5107 5.99834 18.1093 6.43275 17.6914 6.87815ZM15.3818 9.941C15.3654 10.007 15.3489 10.0455 15.3544 10.0785C15.4258 10.4469 15.2554 10.6064 14.9144 10.7438C14.2656 11.0133 13.9742 11.5576 13.9906 12.256C14.0071 12.9488 14.3811 13.3778 15.0079 13.6032C15.2829 13.7022 15.5688 13.7737 15.8437 13.8672C16.0967 13.9496 16.3496 14.0321 16.5916 14.1311C16.795 14.2136 16.9105 14.373 16.8885 14.604C16.8665 14.8404 16.7181 14.9779 16.5091 15.0164C16.2947 15.0604 16.0637 15.0989 15.8602 15.0494C15.4643 14.9559 15.0849 14.7965 14.667 14.6535C14.48 14.9009 14.2656 15.1814 14.0071 15.5278C14.3976 15.6983 14.733 15.8742 15.0904 15.9952C15.2939 16.0612 15.3763 16.1492 15.3489 16.3581C15.3324 16.5066 15.3434 16.6606 15.3434 16.831C15.6568 16.831 15.9207 16.831 16.1847 16.831C16.5641 16.831 16.5806 16.831 16.5586 16.4406C16.5476 16.1987 16.6026 16.0667 16.8665 16.0337C17.004 16.0172 17.1415 15.9402 17.2679 15.8687C17.8508 15.5498 18.0928 15.0384 18.0818 14.3895C18.0708 13.7737 17.7628 13.3503 17.213 13.1028C16.9655 12.9928 16.7016 12.9104 16.4376 12.8224C16.1077 12.7124 15.7778 12.6134 15.4478 12.4924C15.2444 12.4155 15.1619 12.2505 15.1784 12.0305C15.1949 11.8216 15.3214 11.6786 15.5138 11.6456C15.7448 11.6071 15.9922 11.5851 16.2177 11.6236C16.4926 11.6731 16.7511 11.7996 17.0425 11.8986C17.224 11.6181 17.4109 11.3212 17.6309 10.9748C17.3779 10.8593 17.1635 10.7163 16.9325 10.6778C16.6081 10.6228 16.5091 10.4744 16.5476 10.1664C16.5586 10.095 16.4596 9.95199 16.3991 9.94649C16.0692 9.93 15.7228 9.941 15.3818 9.941Z" fill="#CAFF33"/>
<path d="M15.679 28.9888C14.5077 28.9888 13.331 28.9558 12.1597 28.9998C11.3734 29.0273 10.7025 28.7908 10.0702 28.3729C9.17387 27.7735 8.35454 27.0917 7.63969 26.2778C6.58392 25.0736 5.51715 23.8694 4.46138 22.6651C3.59806 21.6753 3.98848 20.2126 5.22021 19.8112C5.36318 19.7617 5.52815 19.7452 5.67662 19.7452C6.65541 19.7397 7.63969 19.7342 8.61848 19.7507C8.75596 19.7507 8.92092 19.8222 9.0199 19.9157C9.69075 20.5646 10.3506 21.2299 11.005 21.8953C11.1369 22.0273 11.2579 22.0547 11.4449 22.0273C11.8408 21.9668 12.2477 21.9118 12.6491 21.9118C14.5022 21.9008 16.3498 21.9063 18.2029 21.9063C18.8353 21.9063 19.3027 22.2307 19.4677 22.7696C19.7206 23.5834 19.1267 24.3478 18.2194 24.3533C16.9932 24.3588 15.7615 24.3533 14.5352 24.3533C14.3153 24.3533 14.0953 24.3478 13.8754 24.3533C13.4794 24.3643 13.221 24.6172 13.2155 24.9746C13.2155 25.3375 13.4739 25.6125 13.8644 25.6125C15.8164 25.618 17.7685 25.618 19.7206 25.6125C20.1165 25.6125 20.4025 25.3925 20.6774 25.1286C21.9531 23.9024 23.2289 22.6761 24.5101 21.4554C25.0325 20.955 25.7253 20.933 26.2202 21.3784C26.7536 21.8623 26.7646 22.6431 26.2257 23.1875C25.6593 23.7649 25.082 24.3093 24.5101 24.8646C23.2453 26.0909 21.9806 27.3116 20.7214 28.5379C20.4135 28.8348 20.0725 28.9888 19.6381 28.9888C18.3184 28.9833 16.9987 28.9888 15.679 28.9888Z" fill="#CAFF33"/>
<path d="M9.13576 5.75098C9.66915 6.28436 10.2025 6.81775 10.7249 7.34014C10.4005 7.66457 10.0596 8.00549 9.71864 8.34092C9.21274 7.81853 8.67936 7.26865 8.16797 6.74076C8.4704 6.43283 8.81133 6.08091 9.13576 5.75098Z" fill="#CAFF33"/>
<path d="M23.0203 5.75098C23.3448 6.07541 23.6802 6.42183 23.9936 6.73527C23.4712 7.25765 22.9269 7.80204 22.399 8.32442C22.08 8.00549 21.7446 7.65907 21.4092 7.32364C21.9316 6.81225 22.4705 6.28436 23.0203 5.75098Z" fill="#CAFF33"/>
<path d="M24.2846 14.4171C24.2846 13.9497 24.2791 13.5208 24.2901 13.0919C24.2901 13.0369 24.3946 12.9379 24.4495 12.9379C25.1204 12.9269 25.7858 12.9269 26.4566 12.9379C26.5116 12.9379 26.6161 13.0204 26.6161 13.0644C26.6271 13.5098 26.6216 13.9552 26.6216 14.4171C25.8352 14.4171 25.0764 14.4171 24.2846 14.4171Z" fill="#CAFF33"/>
<path d="M7.85461 14.4336C7.09577 14.4336 6.38642 14.4391 5.67157 14.4281C5.61659 14.4281 5.52861 14.3236 5.52311 14.2632C5.51211 13.8782 5.50661 13.4933 5.52311 13.1084C5.52311 13.0479 5.63308 12.9379 5.69357 12.9379C6.35343 12.9269 7.01329 12.9269 7.67315 12.9379C7.73363 12.9379 7.84361 13.0259 7.84361 13.0809C7.86011 13.5098 7.85461 13.9497 7.85461 14.4336Z" fill="#CAFF33"/>
</g>
<defs>
<clipPath id="clip0_351_2776">
<rect width="22.6277" height="28" fill="white" transform="translate(4 1)"/>
</clipPath>
</defs>
</svg>
