<svg width="60" height="60" viewBox="0 0 60 60" fill="none" xmlns="http://www.w3.org/2000/svg">
<path d="M6.77687 28.588L6.77592 28.5908C5.59449 32.0839 5 35.4596 5 38.7155V47.8235C5 49.2043 6.11929 50.3235 7.5 50.3235H18.7689C20.1496 50.3235 21.2689 49.2042 21.2689 47.8235L21.2689 38.6066L21.2688 38.6024C21.234 34.4485 21.8963 30.6659 23.248 27.2481C24.4095 24.3554 25.7997 21.5612 27.4188 18.8656C28.1138 17.7084 27.8097 16.1861 26.6692 15.4261L20.6426 11.4102C19.7274 10.8003 18.4979 10.8489 17.6647 11.6086C15.4937 13.588 13.5097 15.9254 11.7113 18.6177L11.7106 18.6187C9.63729 21.7394 7.9925 25.0628 6.77687 28.588ZM33.6564 28.588L33.6555 28.5908C32.4741 32.0839 31.8796 35.4596 31.8796 38.7155V47.8235C31.8796 49.2043 32.9989 50.3235 34.3796 50.3235H45.6484C47.0291 50.3235 48.1484 49.2042 48.1484 47.8235L48.1484 38.6066L48.1484 38.6024C48.1135 34.4487 48.7758 30.6662 50.1274 27.2486C51.289 24.3556 52.6792 21.5614 54.2984 18.8656C54.9933 17.7084 54.6893 16.1861 53.5488 15.4261L47.5221 11.4102C46.6069 10.8003 45.3775 10.8489 44.5442 11.6086C42.3733 13.588 40.3893 15.9254 38.5909 18.6177L38.5902 18.6187C36.5169 21.7394 34.8721 25.0628 33.6564 28.588Z" fill="url(#paint0_linear_351_2689)" stroke="#CAFF33"/>
<defs>
<linearGradient id="paint0_linear_351_2689" x1="30.2059" y1="11" x2="30.2059" y2="49.8235" gradientUnits="userSpaceOnUse">
<stop stop-color="#CAFF33"/>
<stop offset="1" stop-color="#191919"/>
</linearGradient>
</defs>
</svg>
