<svg width="30" height="30" viewBox="0 0 30 30" fill="none" xmlns="http://www.w3.org/2000/svg">
<g clip-path="url(#clip0_432_203)">
<path d="M29.7073 15.3456C29.7073 14.3259 29.6247 13.3007 29.4483 12.2976H15.2998V18.0738H23.402C23.0658 19.9368 21.9855 21.5848 20.4036 22.632V26.3799H25.2374C28.0759 23.7674 29.7073 19.9092 29.7073 15.3456Z" fill="#CAFF33"/>
<path d="M15.2999 30.001C19.3454 30.001 22.7572 28.6727 25.2429 26.3799L20.4092 22.6319C19.0644 23.5469 17.3282 24.065 15.3054 24.065C11.3921 24.065 8.07409 21.4249 6.88357 17.8754H1.89551V21.739C4.4419 26.8043 9.62838 30.001 15.2999 30.001V30.001Z" fill="#CAFF33"/>
<path d="M6.87798 17.8754C6.24965 16.0124 6.24965 13.9952 6.87798 12.1322V8.26855H1.89543C-0.232071 12.507 -0.232071 17.5006 1.89543 21.7391L6.87798 17.8754V17.8754Z" fill="#CAFF33"/>
<path d="M15.2999 5.93708C17.4384 5.90401 19.5053 6.70871 21.0541 8.18583L25.3366 3.90327C22.6249 1.35688 19.0258 -0.0430825 15.2999 0.00101083C9.62838 0.00101083 4.4419 3.19778 1.89551 8.26851L6.87805 12.1322C8.06306 8.57716 11.3866 5.93708 15.2999 5.93708V5.93708Z" fill="#CAFF33"/>
</g>
<defs>
<clipPath id="clip0_432_203">
<rect width="30" height="30" fill="white"/>
</clipPath>
</defs>
</svg>
