<svg width="35" height="36" viewBox="0 0 35 36" fill="none" xmlns="http://www.w3.org/2000/svg">
<path d="M34.5864 17.6877C34.5864 27.2143 26.8637 34.9372 17.3372 34.9372C7.81064 34.9372 0.0878906 27.2143 0.0878906 17.6877C0.0878906 8.16123 7.81064 0.438477 17.3372 0.438477C26.8636 0.438477 34.5864 8.16123 34.5864 17.6877Z" fill="#262626"/>
<g opacity="0.8">
<path d="M17.2823 9.68408L17.1758 10.0462V20.5544L17.2823 20.6608L22.1601 17.7775L17.2823 9.68408Z" fill="#CAFF33"/>
<path d="M17.2821 9.68408L12.4043 17.7775L17.2821 20.6608V15.5604V9.68408Z" fill="#CAFF33"/>
<path d="M17.2817 22.248L17.2217 22.3212V26.0645L17.2817 26.2398L22.1624 19.3662L17.2817 22.248Z" fill="#CAFF33"/>
<path d="M17.2821 26.2398V22.248L12.4043 19.3662L17.2821 26.2398Z" fill="#CAFF33"/>
<path d="M17.2822 20.6608L22.1599 17.7776L17.2822 15.5605V20.6608Z" fill="#CAFF33"/>
<path d="M12.4043 17.7776L17.282 20.6609V15.5605L12.4043 17.7776Z" fill="#CAFF33"/>
</g>
</svg>
