<svg width="30" height="30" viewBox="0 0 30 30" fill="none" xmlns="http://www.w3.org/2000/svg">
<g clip-path="url(#clip0_351_2789)">
<path d="M24.658 14.0185C24.658 14.7663 24.6681 15.5093 24.653 16.2571C24.643 16.6606 24.7584 17.0148 24.9692 17.3494C25.5112 18.2251 26.2289 18.9582 26.9566 19.6815C27.2276 19.9521 27.5086 20.2079 27.7947 20.4588C27.9352 20.5818 28.0004 20.7098 28.0004 20.9016C27.9904 21.7233 27.9904 22.54 27.9954 23.3617C28.0004 24.0456 27.6993 24.5572 27.072 24.8426C26.4296 25.1329 25.8274 25.0099 25.3004 24.5622C24.2114 23.6274 23.1274 22.6876 22.0434 21.7528C21.3056 21.1132 20.5729 20.4638 19.8201 19.8438C19.5541 19.6224 19.238 19.4601 18.9318 19.2928C18.4802 19.0468 17.9934 18.9139 17.4664 18.9336C17.085 18.9484 16.6935 18.9533 16.3121 18.9238C15.7551 18.8795 15.3586 18.5007 15.2833 17.9791C15.2131 17.5216 15.4891 17.0296 15.9508 16.8524C16.1264 16.7836 16.3222 16.754 16.5129 16.754C17.9582 16.7442 19.4036 16.7491 20.854 16.7491C21.396 16.7491 21.5917 16.5572 21.5917 16.021C21.5917 14.9385 21.5867 13.8561 21.5917 12.7737C21.5967 12.3604 21.4512 12.0357 21.135 11.7553C19.3133 10.1513 17.5015 8.53756 15.6848 6.92379C15.198 6.49082 15.1428 5.85122 15.5493 5.38381C15.9508 4.91641 16.6082 4.87213 17.1251 5.26573C19.4488 7.03695 21.7673 8.80816 24.101 10.5695C24.4874 10.8598 24.6681 11.2141 24.6631 11.6815C24.653 12.4588 24.658 13.2362 24.658 14.0185Z" fill="#CAFF33"/>
<path d="M1.00527 22.2056C1.00527 21.7628 1.01029 21.32 1.00025 20.8772C0.995233 20.705 1.06549 20.5918 1.18092 20.4737C1.93873 19.7111 2.6865 18.9387 3.42925 18.1613C3.58482 17.9989 3.70025 17.807 3.83575 17.6299C4.19207 17.1527 4.35769 16.6312 4.34263 16.0211C4.31252 14.6139 4.34765 13.2019 4.32758 11.7898C4.31754 11.2339 4.51828 10.8403 4.97497 10.4958C7.29356 8.76399 9.58705 7.00261 11.8906 5.24616C12.3724 4.87715 13.0348 4.93619 13.4263 5.379C13.8278 5.83164 13.7926 6.48109 13.3259 6.90421C12.6183 7.54382 11.9006 8.16867 11.188 8.80335C10.0588 9.80212 8.92962 10.8058 7.80044 11.8046C7.53445 12.0407 7.40397 12.3261 7.40397 12.6705C7.40397 13.8169 7.39895 14.9633 7.40397 16.1145C7.40397 16.5377 7.62479 16.7443 8.0614 16.7443C9.55192 16.7492 11.0374 16.7443 12.5279 16.7492C13.2305 16.7492 13.7224 17.2314 13.7073 17.8808C13.6973 18.3778 13.3309 18.8255 12.824 18.8993C12.5229 18.9436 12.2068 18.9633 11.9006 18.9337C10.8718 18.8353 10.0036 19.2043 9.23575 19.8046C8.45285 20.4147 7.72014 21.0936 6.97237 21.7382C5.8733 22.6828 4.77925 23.6373 3.67516 24.577C2.78185 25.3396 1.46196 25.0051 1.08055 23.9177C1.03036 23.78 1.01531 23.6275 1.01029 23.4848C1.00025 23.0617 1.00527 22.6336 1.00527 22.2056Z" fill="#CAFF33"/>
<path d="M15.2132 15.0369C15.2132 15.2731 15.2132 15.4945 15.2132 15.7356C14.7917 15.7356 14.3902 15.7356 13.9536 15.7356C13.9536 15.5437 13.9485 15.3567 13.9536 15.1698C13.9586 15.032 13.9184 14.973 13.7729 14.9385C13.3563 14.8401 12.9699 14.6728 12.6086 14.3875C12.8394 14.0874 13.0602 13.802 13.261 13.5363C13.6424 13.679 13.9887 13.8463 14.355 13.9299C14.621 13.989 14.9171 13.9496 15.1931 13.9053C15.4039 13.8709 15.5394 13.7085 15.5545 13.4871C15.5746 13.2608 15.4541 13.1033 15.2534 13.0246C14.9121 12.8967 14.5558 12.7983 14.2095 12.6851C13.9586 12.6015 13.6976 12.5277 13.4517 12.4244C12.8746 12.1833 12.5684 11.7552 12.5534 11.1255C12.5383 10.4662 12.7892 9.93483 13.3915 9.64947C13.7829 9.46251 14.1192 9.32474 13.9234 8.77862C14.35 8.77862 14.7214 8.7737 15.0978 8.78846C15.1379 8.78846 15.2082 8.91146 15.2082 8.98034C15.2333 9.39855 15.2333 9.38871 15.6298 9.52647C15.8606 9.60519 16.0814 9.71835 16.3324 9.83151C16.1216 10.1513 15.951 10.4318 15.7602 10.6974C15.7301 10.7368 15.6097 10.7319 15.5394 10.7122C15.2082 10.6286 14.887 10.5203 14.5558 10.4564C14.4253 10.4318 14.2747 10.4711 14.1392 10.5056C13.9385 10.5597 13.803 10.6925 13.7879 10.909C13.7729 11.1206 13.8682 11.2829 14.064 11.3616C14.3199 11.465 14.5809 11.5437 14.8418 11.6273C15.1279 11.7208 15.424 11.7897 15.7 11.893C16.498 12.1981 16.8192 12.6802 16.779 13.4723C16.7389 14.2005 16.2822 14.7417 15.5294 14.9533C15.4391 14.9828 15.3437 15.0074 15.2132 15.0369Z" fill="#CAFF33"/>
</g>
<defs>
<clipPath id="clip0_351_2789">
<rect width="27" height="20" fill="white" transform="translate(1 5)"/>
</clipPath>
</defs>
</svg>
