<svg width="35" height="34" viewBox="0 0 35 34" fill="none" xmlns="http://www.w3.org/2000/svg">
<path d="M17.334 10.625C15.5736 10.625 14.1465 12.0521 14.1465 13.8125C14.1465 15.5729 15.5736 17 17.334 17C19.0944 17 20.5215 15.5729 20.5215 13.8125C20.5215 12.0521 19.0944 10.625 17.334 10.625Z" fill="#CAFF33"/>
<path fill-rule="evenodd" clip-rule="evenodd" d="M2.45898 6.90625C2.45898 5.43924 3.64823 4.25 5.11523 4.25H29.5527C31.0197 4.25 32.209 5.43924 32.209 6.90625V20.7188C32.209 22.1858 31.0197 23.375 29.5527 23.375H5.11523C3.64823 23.375 2.45898 22.1858 2.45898 20.7188V6.90625ZM12.0215 13.8125C12.0215 10.8785 14.4 8.5 17.334 8.5C20.268 8.5 22.6465 10.8785 22.6465 13.8125C22.6465 16.7465 20.268 19.125 17.334 19.125C14.4 19.125 12.0215 16.7465 12.0215 13.8125ZM26.8965 12.75C26.3097 12.75 25.834 13.2257 25.834 13.8125V13.8231C25.834 14.4099 26.3097 14.8856 26.8965 14.8856H26.9071C27.4939 14.8856 27.9696 14.4099 27.9696 13.8231V13.8125C27.9696 13.2257 27.4939 12.75 26.9071 12.75H26.8965ZM6.70898 13.8125C6.70898 13.2257 7.18468 12.75 7.77148 12.75H7.78211C8.36891 12.75 8.84461 13.2257 8.84461 13.8125V13.8231C8.84461 14.4099 8.36891 14.8856 7.78211 14.8856H7.77148C7.18468 14.8856 6.70898 14.4099 6.70898 13.8231V13.8125Z" fill="#CAFF33"/>
<path d="M3.52148 25.5C2.93468 25.5 2.45898 25.9757 2.45898 26.5625C2.45898 27.1493 2.93468 27.625 3.52148 27.625C11.1716 27.625 18.581 28.6481 25.6212 30.5644C27.3078 31.0235 29.0215 29.7738 29.0215 27.9864V26.5625C29.0215 25.9757 28.5458 25.5 27.959 25.5H3.52148Z" fill="#CAFF33"/>
</svg>
