<svg width="21" height="21" viewBox="0 0 21 21" fill="none" xmlns="http://www.w3.org/2000/svg">
<path fill-rule="evenodd" clip-rule="evenodd" d="M13.876 2.32065C13.5828 2.63646 13.6011 3.1302 13.9169 3.42345L16.1023 5.45273L7.16476 5.45273C6.7338 5.45273 6.38443 5.8021 6.38443 6.23307C6.38443 6.66403 6.7338 7.0134 7.16476 7.0134L16.1023 7.0134L13.9169 9.04268C13.6011 9.33593 13.5828 9.82967 13.876 10.1455C14.1693 10.4613 14.663 10.4796 14.9788 10.1863L18.6204 6.80489C18.7794 6.65724 18.8697 6.45005 18.8697 6.23306C18.8697 6.01608 18.7794 5.80889 18.6204 5.66124L14.9788 2.2798C14.663 1.98655 14.1693 2.00484 13.876 2.32065ZM7.21636 10.6442C6.92311 10.3284 6.42937 10.3101 6.11356 10.6033L2.47201 13.9848C2.31301 14.1324 2.22266 14.3396 2.22266 14.5566C2.22266 14.7736 2.31301 14.9808 2.47201 15.1284L6.11356 18.5099C6.42937 18.8031 6.92311 18.7848 7.21636 18.469C7.50961 18.1532 7.49133 17.6595 7.17552 17.3662L4.99013 15.3369H13.9276C14.3586 15.3369 14.708 14.9876 14.708 14.5566C14.708 14.1256 14.3586 13.7763 13.9276 13.7763H4.99013L7.17552 11.747C7.49133 11.4537 7.50961 10.96 7.21636 10.6442Z" fill="#1C1C1C"/>
</svg>
