<svg width="22" height="21" viewBox="0 0 22 21" fill="none" xmlns="http://www.w3.org/2000/svg">
<path fill-rule="evenodd" clip-rule="evenodd" d="M10.7021 4.60156C11.0612 4.60156 11.3524 4.8927 11.3524 5.25184V9.80378H15.9043C16.2635 9.80378 16.5546 10.0949 16.5546 10.4541C16.5546 10.8132 16.2635 11.1043 15.9043 11.1043H11.3524V15.6563C11.3524 16.0154 11.0612 16.3066 10.7021 16.3066C10.343 16.3066 10.0518 16.0154 10.0518 15.6563V11.1043H5.49989C5.14075 11.1043 4.84961 10.8132 4.84961 10.4541C4.84961 10.0949 5.14075 9.80378 5.49989 9.80378L10.0518 9.80378V5.25184C10.0518 4.8927 10.343 4.60156 10.7021 4.60156Z" fill="#1A1A1A"/>
</svg>
